<mxfile host="app.diagrams.net" agent="Mozilla/5.0 (Macintosh; Intel Mac OS X 10_15_7) AppleWebKit/537.36 (KHTML, like Gecko) Chrome/131.0.0.0 Safari/537.36" version="24.8.4">
  <diagram name="Page-1" id="c37626ed-c26b-45fb-9056-f9ebc6bb27b6">
    <mxGraphModel dx="2868" dy="1570" grid="1" gridSize="10" guides="1" tooltips="1" connect="1" arrows="1" fold="1" page="1" pageScale="1" pageWidth="1100" pageHeight="850" background="none" math="0" shadow="0">
      <root>
        <mxCell id="0" />
        <mxCell id="1" parent="0" />
        <mxCell id="1c7a67bf8fd3230f-83" value="2009.01.03" style="whiteSpace=wrap;html=1;rounded=0;shadow=0;comic=0;strokeWidth=1;fontFamily=Verdana;fontSize=14;fillColor=#f5f5f5;strokeColor=none;verticalAlign=top;fontStyle=1" parent="1" vertex="1">
          <mxGeometry x="220" y="240" width="571" height="510" as="geometry" />
        </mxCell>
        <mxCell id="4yXEthaCVY4qFXwyMhSS-3" style="edgeStyle=orthogonalEdgeStyle;rounded=0;orthogonalLoop=1;jettySize=auto;html=1;entryX=0.5;entryY=0;entryDx=0;entryDy=0;" edge="1" parent="1" source="1c7a67bf8fd3230f-5" target="4yXEthaCVY4qFXwyMhSS-1">
          <mxGeometry relative="1" as="geometry" />
        </mxCell>
        <mxCell id="4yXEthaCVY4qFXwyMhSS-4" value="挖矿成功" style="edgeLabel;html=1;align=center;verticalAlign=middle;resizable=0;points=[];" vertex="1" connectable="0" parent="4yXEthaCVY4qFXwyMhSS-3">
          <mxGeometry x="-0.0996" y="3" relative="1" as="geometry">
            <mxPoint y="-1" as="offset" />
          </mxGeometry>
        </mxCell>
        <mxCell id="1c7a67bf8fd3230f-5" value="中本聪节点" style="shape=mxgraph.cisco.misc.route_switch_processor;html=1;dashed=0;fillColor=#036897;strokeColor=#ffffff;strokeWidth=2;verticalLabelPosition=bottom;verticalAlign=top;rounded=0;shadow=0;comic=0;fontFamily=Verdana;fontSize=12;" parent="1" vertex="1">
          <mxGeometry x="470" y="440" width="64" height="86" as="geometry" />
        </mxCell>
        <mxCell id="4yXEthaCVY4qFXwyMhSS-39" style="edgeStyle=none;rounded=0;orthogonalLoop=1;jettySize=auto;html=1;entryX=0;entryY=0.5;entryDx=0;entryDy=0;" edge="1" parent="1" source="4yXEthaCVY4qFXwyMhSS-1" target="4yXEthaCVY4qFXwyMhSS-31">
          <mxGeometry relative="1" as="geometry" />
        </mxCell>
        <mxCell id="4yXEthaCVY4qFXwyMhSS-1" value="&lt;br&gt;&lt;div&gt;&lt;br&gt;&lt;/div&gt;&lt;div&gt;&lt;br&gt;&lt;/div&gt;&lt;div&gt;&lt;br&gt;&lt;/div&gt;&lt;div&gt;&lt;br&gt;&lt;/div&gt;&lt;div&gt;&lt;br&gt;&lt;/div&gt;&lt;div&gt;&lt;br&gt;&lt;/div&gt;&lt;div&gt;&lt;br&gt;&lt;/div&gt;&lt;div&gt;&lt;br&gt;&lt;/div&gt;" style="rounded=0;whiteSpace=wrap;html=1;" vertex="1" parent="1">
          <mxGeometry x="451.5" y="840" width="101.5" height="200" as="geometry" />
        </mxCell>
        <mxCell id="4yXEthaCVY4qFXwyMhSS-2" value="区块链" style="text;html=1;align=center;verticalAlign=middle;resizable=0;points=[];autosize=1;strokeColor=none;fillColor=none;fontSize=23;" vertex="1" parent="1">
          <mxGeometry x="245" y="880" width="90" height="40" as="geometry" />
        </mxCell>
        <mxCell id="4yXEthaCVY4qFXwyMhSS-23" style="edgeStyle=none;rounded=0;orthogonalLoop=1;jettySize=auto;html=1;" edge="1" parent="1" source="4yXEthaCVY4qFXwyMhSS-5">
          <mxGeometry relative="1" as="geometry">
            <mxPoint x="1235.5" y="839.9999999999998" as="targetPoint" />
          </mxGeometry>
        </mxCell>
        <mxCell id="4yXEthaCVY4qFXwyMhSS-24" value="这些节点根据上一个区块信息、挖矿、谁挖成功了就能创建新的区块" style="edgeLabel;html=1;align=center;verticalAlign=middle;resizable=0;points=[];" vertex="1" connectable="0" parent="4yXEthaCVY4qFXwyMhSS-23">
          <mxGeometry x="-0.0682" y="-2" relative="1" as="geometry">
            <mxPoint x="-1" as="offset" />
          </mxGeometry>
        </mxCell>
        <mxCell id="4yXEthaCVY4qFXwyMhSS-5" value="创世日后一周" style="whiteSpace=wrap;html=1;rounded=0;shadow=0;comic=0;strokeWidth=1;fontFamily=Verdana;fontSize=14;fillColor=#f5f5f5;strokeColor=none;verticalAlign=top;fontStyle=1" vertex="1" parent="1">
          <mxGeometry x="950" y="230" width="571" height="510" as="geometry" />
        </mxCell>
        <mxCell id="4yXEthaCVY4qFXwyMhSS-8" value="节点D" style="shape=mxgraph.cisco.misc.route_switch_processor;html=1;dashed=0;fillColor=#036897;strokeColor=#ffffff;strokeWidth=2;verticalLabelPosition=bottom;verticalAlign=top;rounded=0;shadow=0;comic=0;fontFamily=Verdana;fontSize=12;" vertex="1" parent="1">
          <mxGeometry x="1380" y="310" width="64" height="86" as="geometry" />
        </mxCell>
        <mxCell id="4yXEthaCVY4qFXwyMhSS-9" value="节点C" style="shape=mxgraph.cisco.misc.route_switch_processor;html=1;dashed=0;fillColor=#036897;strokeColor=#ffffff;strokeWidth=2;verticalLabelPosition=bottom;verticalAlign=top;rounded=0;shadow=0;comic=0;fontFamily=Verdana;fontSize=12;" vertex="1" parent="1">
          <mxGeometry x="1380" y="580" width="64" height="86" as="geometry" />
        </mxCell>
        <mxCell id="4yXEthaCVY4qFXwyMhSS-10" value="中本聪节点" style="shape=mxgraph.cisco.misc.route_switch_processor;html=1;dashed=0;fillColor=#036897;strokeColor=#ffffff;strokeWidth=2;verticalLabelPosition=bottom;verticalAlign=top;rounded=0;shadow=0;comic=0;fontFamily=Verdana;fontSize=12;" vertex="1" parent="1">
          <mxGeometry x="1020" y="310" width="64" height="86" as="geometry" />
        </mxCell>
        <mxCell id="4yXEthaCVY4qFXwyMhSS-11" value="节点B" style="shape=mxgraph.cisco.misc.route_switch_processor;html=1;dashed=0;fillColor=#036897;strokeColor=#ffffff;strokeWidth=2;verticalLabelPosition=bottom;verticalAlign=top;rounded=0;shadow=0;comic=0;fontFamily=Verdana;fontSize=12;" vertex="1" parent="1">
          <mxGeometry x="1020" y="580" width="64" height="86" as="geometry" />
        </mxCell>
        <mxCell id="4yXEthaCVY4qFXwyMhSS-15" style="rounded=0;orthogonalLoop=1;jettySize=auto;html=1;entryX=0.5;entryY=1;entryDx=0;entryDy=0;entryPerimeter=0;startArrow=classic;startFill=1;exitX=0.5;exitY=0;exitDx=0;exitDy=0;exitPerimeter=0;" edge="1" parent="1" source="4yXEthaCVY4qFXwyMhSS-11" target="4yXEthaCVY4qFXwyMhSS-10">
          <mxGeometry relative="1" as="geometry">
            <mxPoint x="1200" y="458" as="sourcePoint" />
            <mxPoint x="1094" y="393" as="targetPoint" />
            <Array as="points" />
          </mxGeometry>
        </mxCell>
        <mxCell id="4yXEthaCVY4qFXwyMhSS-16" style="rounded=0;orthogonalLoop=1;jettySize=auto;html=1;entryX=0;entryY=0.5;entryDx=0;entryDy=0;entryPerimeter=0;startArrow=classic;startFill=1;" edge="1" parent="1" source="4yXEthaCVY4qFXwyMhSS-11" target="4yXEthaCVY4qFXwyMhSS-9">
          <mxGeometry relative="1" as="geometry" />
        </mxCell>
        <mxCell id="4yXEthaCVY4qFXwyMhSS-17" style="edgeStyle=none;rounded=0;orthogonalLoop=1;jettySize=auto;html=1;entryX=0.5;entryY=0;entryDx=0;entryDy=0;entryPerimeter=0;startArrow=classic;startFill=1;" edge="1" parent="1" source="4yXEthaCVY4qFXwyMhSS-8" target="4yXEthaCVY4qFXwyMhSS-9">
          <mxGeometry relative="1" as="geometry" />
        </mxCell>
        <mxCell id="4yXEthaCVY4qFXwyMhSS-18" style="edgeStyle=none;rounded=0;orthogonalLoop=1;jettySize=auto;html=1;entryX=1;entryY=0.5;entryDx=0;entryDy=0;entryPerimeter=0;startArrow=classic;startFill=1;" edge="1" parent="1" source="4yXEthaCVY4qFXwyMhSS-8" target="4yXEthaCVY4qFXwyMhSS-10">
          <mxGeometry relative="1" as="geometry" />
        </mxCell>
        <mxCell id="4yXEthaCVY4qFXwyMhSS-19" style="edgeStyle=none;rounded=0;orthogonalLoop=1;jettySize=auto;html=1;entryX=0.07;entryY=0.04;entryDx=0;entryDy=0;entryPerimeter=0;startArrow=classic;startFill=1;" edge="1" parent="1" source="4yXEthaCVY4qFXwyMhSS-10" target="4yXEthaCVY4qFXwyMhSS-9">
          <mxGeometry relative="1" as="geometry" />
        </mxCell>
        <mxCell id="4yXEthaCVY4qFXwyMhSS-20" style="edgeStyle=none;rounded=0;orthogonalLoop=1;jettySize=auto;html=1;entryX=0;entryY=1;entryDx=0;entryDy=0;entryPerimeter=0;startArrow=classic;startFill=1;" edge="1" parent="1" source="4yXEthaCVY4qFXwyMhSS-11" target="4yXEthaCVY4qFXwyMhSS-8">
          <mxGeometry relative="1" as="geometry" />
        </mxCell>
        <mxCell id="4yXEthaCVY4qFXwyMhSS-25" value="coinbase交易信息" style="text;html=1;align=center;verticalAlign=middle;whiteSpace=wrap;rounded=0;" vertex="1" parent="1">
          <mxGeometry x="451.5" y="880" width="102" height="30" as="geometry" />
        </mxCell>
        <mxCell id="4yXEthaCVY4qFXwyMhSS-27" value="创世区块" style="text;html=1;align=center;verticalAlign=middle;whiteSpace=wrap;rounded=0;fontColor=#FF0000;" vertex="1" parent="1">
          <mxGeometry x="472.25" y="841" width="60" height="30" as="geometry" />
        </mxCell>
        <mxCell id="4yXEthaCVY4qFXwyMhSS-28" value="时间戳" style="text;html=1;align=center;verticalAlign=middle;whiteSpace=wrap;rounded=0;" vertex="1" parent="1">
          <mxGeometry x="458.25" y="920" width="88" height="30" as="geometry" />
        </mxCell>
        <mxCell id="4yXEthaCVY4qFXwyMhSS-29" value="随机数nonce" style="text;html=1;align=center;verticalAlign=middle;whiteSpace=wrap;rounded=0;" vertex="1" parent="1">
          <mxGeometry x="458.25" y="960" width="88" height="30" as="geometry" />
        </mxCell>
        <mxCell id="4yXEthaCVY4qFXwyMhSS-30" value="难度目标" style="text;html=1;align=center;verticalAlign=middle;whiteSpace=wrap;rounded=0;" vertex="1" parent="1">
          <mxGeometry x="458" y="990" width="88" height="30" as="geometry" />
        </mxCell>
        <mxCell id="4yXEthaCVY4qFXwyMhSS-31" value="&lt;br&gt;&lt;div&gt;&lt;br&gt;&lt;/div&gt;&lt;div&gt;&lt;br&gt;&lt;/div&gt;&lt;div&gt;&lt;br&gt;&lt;/div&gt;&lt;div&gt;&lt;br&gt;&lt;/div&gt;&lt;div&gt;&lt;br&gt;&lt;/div&gt;&lt;div&gt;&lt;br&gt;&lt;/div&gt;&lt;div&gt;&lt;br&gt;&lt;/div&gt;&lt;div&gt;&lt;br&gt;&lt;/div&gt;" style="rounded=0;whiteSpace=wrap;html=1;" vertex="1" parent="1">
          <mxGeometry x="1175.75" y="840" width="119.5" height="210" as="geometry" />
        </mxCell>
        <mxCell id="4yXEthaCVY4qFXwyMhSS-32" value="coinbase交易信息" style="text;html=1;align=center;verticalAlign=middle;whiteSpace=wrap;rounded=0;" vertex="1" parent="1">
          <mxGeometry x="1184" y="901" width="102" height="30" as="geometry" />
        </mxCell>
        <mxCell id="4yXEthaCVY4qFXwyMhSS-33" value="区块2" style="text;html=1;align=center;verticalAlign=middle;whiteSpace=wrap;rounded=0;fontColor=#FF0000;" vertex="1" parent="1">
          <mxGeometry x="1205.25" y="841" width="60" height="30" as="geometry" />
        </mxCell>
        <mxCell id="4yXEthaCVY4qFXwyMhSS-34" value="时间戳" style="text;html=1;align=center;verticalAlign=middle;whiteSpace=wrap;rounded=0;" vertex="1" parent="1">
          <mxGeometry x="1191.25" y="960" width="88" height="30" as="geometry" />
        </mxCell>
        <mxCell id="4yXEthaCVY4qFXwyMhSS-35" value="随机数nonce" style="text;html=1;align=center;verticalAlign=middle;whiteSpace=wrap;rounded=0;" vertex="1" parent="1">
          <mxGeometry x="1191.25" y="990" width="88" height="30" as="geometry" />
        </mxCell>
        <mxCell id="4yXEthaCVY4qFXwyMhSS-36" value="难度目标" style="text;html=1;align=center;verticalAlign=middle;whiteSpace=wrap;rounded=0;" vertex="1" parent="1">
          <mxGeometry x="1191" y="1020" width="88" height="30" as="geometry" />
        </mxCell>
        <mxCell id="4yXEthaCVY4qFXwyMhSS-37" value="上一个区块的hash" style="text;html=1;align=center;verticalAlign=middle;whiteSpace=wrap;rounded=0;" vertex="1" parent="1">
          <mxGeometry x="1184.5" y="871" width="102" height="30" as="geometry" />
        </mxCell>
        <mxCell id="4yXEthaCVY4qFXwyMhSS-38" value="普通交易信息" style="text;html=1;align=center;verticalAlign=middle;whiteSpace=wrap;rounded=0;" vertex="1" parent="1">
          <mxGeometry x="1184" y="930" width="102" height="30" as="geometry" />
        </mxCell>
        <mxCell id="4yXEthaCVY4qFXwyMhSS-40" style="edgeStyle=none;rounded=0;orthogonalLoop=1;jettySize=auto;html=1;" edge="1" parent="1" source="4yXEthaCVY4qFXwyMhSS-42">
          <mxGeometry relative="1" as="geometry">
            <mxPoint x="1985.5" y="849.9999999999998" as="targetPoint" />
          </mxGeometry>
        </mxCell>
        <mxCell id="4yXEthaCVY4qFXwyMhSS-41" value="这些节点根据上一个区块信息、挖矿、谁挖成功了就能创建新的区块" style="edgeLabel;html=1;align=center;verticalAlign=middle;resizable=0;points=[];" vertex="1" connectable="0" parent="4yXEthaCVY4qFXwyMhSS-40">
          <mxGeometry x="-0.0682" y="-2" relative="1" as="geometry">
            <mxPoint x="-1" as="offset" />
          </mxGeometry>
        </mxCell>
        <mxCell id="4yXEthaCVY4qFXwyMhSS-42" value="创世日后一月" style="whiteSpace=wrap;html=1;rounded=0;shadow=0;comic=0;strokeWidth=1;fontFamily=Verdana;fontSize=14;fillColor=#f5f5f5;strokeColor=none;verticalAlign=top;fontStyle=1" vertex="1" parent="1">
          <mxGeometry x="1700" y="240" width="571" height="510" as="geometry" />
        </mxCell>
        <mxCell id="4yXEthaCVY4qFXwyMhSS-43" value="节点D" style="shape=mxgraph.cisco.misc.route_switch_processor;html=1;dashed=0;fillColor=#036897;strokeColor=#ffffff;strokeWidth=2;verticalLabelPosition=bottom;verticalAlign=top;rounded=0;shadow=0;comic=0;fontFamily=Verdana;fontSize=12;" vertex="1" parent="1">
          <mxGeometry x="2130" y="320" width="64" height="86" as="geometry" />
        </mxCell>
        <mxCell id="4yXEthaCVY4qFXwyMhSS-44" value="节点C" style="shape=mxgraph.cisco.misc.route_switch_processor;html=1;dashed=0;fillColor=#036897;strokeColor=#ffffff;strokeWidth=2;verticalLabelPosition=bottom;verticalAlign=top;rounded=0;shadow=0;comic=0;fontFamily=Verdana;fontSize=12;" vertex="1" parent="1">
          <mxGeometry x="2130" y="590" width="64" height="86" as="geometry" />
        </mxCell>
        <mxCell id="4yXEthaCVY4qFXwyMhSS-45" value="中本聪节点" style="shape=mxgraph.cisco.misc.route_switch_processor;html=1;dashed=0;fillColor=#036897;strokeColor=#ffffff;strokeWidth=2;verticalLabelPosition=bottom;verticalAlign=top;rounded=0;shadow=0;comic=0;fontFamily=Verdana;fontSize=12;" vertex="1" parent="1">
          <mxGeometry x="1770" y="320" width="64" height="86" as="geometry" />
        </mxCell>
        <mxCell id="4yXEthaCVY4qFXwyMhSS-46" value="节点B" style="shape=mxgraph.cisco.misc.route_switch_processor;html=1;dashed=0;fillColor=#036897;strokeColor=#ffffff;strokeWidth=2;verticalLabelPosition=bottom;verticalAlign=top;rounded=0;shadow=0;comic=0;fontFamily=Verdana;fontSize=12;" vertex="1" parent="1">
          <mxGeometry x="1770" y="590" width="64" height="86" as="geometry" />
        </mxCell>
        <mxCell id="4yXEthaCVY4qFXwyMhSS-53" value="&lt;br&gt;&lt;div&gt;&lt;br&gt;&lt;/div&gt;&lt;div&gt;&lt;br&gt;&lt;/div&gt;&lt;div&gt;&lt;br&gt;&lt;/div&gt;&lt;div&gt;&lt;br&gt;&lt;/div&gt;&lt;div&gt;&lt;br&gt;&lt;/div&gt;&lt;div&gt;&lt;br&gt;&lt;/div&gt;&lt;div&gt;&lt;br&gt;&lt;/div&gt;&lt;div&gt;&lt;br&gt;&lt;/div&gt;" style="rounded=0;whiteSpace=wrap;html=1;" vertex="1" parent="1">
          <mxGeometry x="1925.75" y="850" width="119.5" height="210" as="geometry" />
        </mxCell>
        <mxCell id="4yXEthaCVY4qFXwyMhSS-54" value="coinbase交易信息" style="text;html=1;align=center;verticalAlign=middle;whiteSpace=wrap;rounded=0;" vertex="1" parent="1">
          <mxGeometry x="1934" y="911" width="102" height="30" as="geometry" />
        </mxCell>
        <mxCell id="4yXEthaCVY4qFXwyMhSS-55" value="区块3" style="text;html=1;align=center;verticalAlign=middle;whiteSpace=wrap;rounded=0;fontColor=#FF0000;" vertex="1" parent="1">
          <mxGeometry x="1955.25" y="851" width="60" height="30" as="geometry" />
        </mxCell>
        <mxCell id="4yXEthaCVY4qFXwyMhSS-56" value="时间戳" style="text;html=1;align=center;verticalAlign=middle;whiteSpace=wrap;rounded=0;" vertex="1" parent="1">
          <mxGeometry x="1941.25" y="970" width="88" height="30" as="geometry" />
        </mxCell>
        <mxCell id="4yXEthaCVY4qFXwyMhSS-57" value="随机数nonce" style="text;html=1;align=center;verticalAlign=middle;whiteSpace=wrap;rounded=0;" vertex="1" parent="1">
          <mxGeometry x="1941.25" y="1000" width="88" height="30" as="geometry" />
        </mxCell>
        <mxCell id="4yXEthaCVY4qFXwyMhSS-58" value="难度目标" style="text;html=1;align=center;verticalAlign=middle;whiteSpace=wrap;rounded=0;" vertex="1" parent="1">
          <mxGeometry x="1941" y="1030" width="88" height="30" as="geometry" />
        </mxCell>
        <mxCell id="4yXEthaCVY4qFXwyMhSS-59" value="上一个区块的hash" style="text;html=1;align=center;verticalAlign=middle;whiteSpace=wrap;rounded=0;" vertex="1" parent="1">
          <mxGeometry x="1934.5" y="881" width="102" height="30" as="geometry" />
        </mxCell>
        <mxCell id="4yXEthaCVY4qFXwyMhSS-60" value="普通交易信息" style="text;html=1;align=center;verticalAlign=middle;whiteSpace=wrap;rounded=0;" vertex="1" parent="1">
          <mxGeometry x="1934" y="940" width="102" height="30" as="geometry" />
        </mxCell>
        <mxCell id="4yXEthaCVY4qFXwyMhSS-61" value="节点E" style="shape=mxgraph.cisco.misc.route_switch_processor;html=1;dashed=0;fillColor=#036897;strokeColor=#ffffff;strokeWidth=2;verticalLabelPosition=bottom;verticalAlign=top;rounded=0;shadow=0;comic=0;fontFamily=Verdana;fontSize=12;" vertex="1" parent="1">
          <mxGeometry x="1908.5" y="339" width="64" height="86" as="geometry" />
        </mxCell>
        <mxCell id="4yXEthaCVY4qFXwyMhSS-62" value="节点E" style="shape=mxgraph.cisco.misc.route_switch_processor;html=1;dashed=0;fillColor=#036897;strokeColor=#ffffff;strokeWidth=2;verticalLabelPosition=bottom;verticalAlign=top;rounded=0;shadow=0;comic=0;fontFamily=Verdana;fontSize=12;" vertex="1" parent="1">
          <mxGeometry x="2029" y="406" width="64" height="86" as="geometry" />
        </mxCell>
        <mxCell id="4yXEthaCVY4qFXwyMhSS-63" value="节点H" style="shape=mxgraph.cisco.misc.route_switch_processor;html=1;dashed=0;fillColor=#036897;strokeColor=#ffffff;strokeWidth=2;verticalLabelPosition=bottom;verticalAlign=top;rounded=0;shadow=0;comic=0;fontFamily=Verdana;fontSize=12;" vertex="1" parent="1">
          <mxGeometry x="1820" y="480" width="64" height="86" as="geometry" />
        </mxCell>
        <mxCell id="4yXEthaCVY4qFXwyMhSS-64" value="节点G" style="shape=mxgraph.cisco.misc.route_switch_processor;html=1;dashed=0;fillColor=#036897;strokeColor=#ffffff;strokeWidth=2;verticalLabelPosition=bottom;verticalAlign=top;rounded=0;shadow=0;comic=0;fontFamily=Verdana;fontSize=12;" vertex="1" parent="1">
          <mxGeometry x="1951.25" y="526" width="64" height="86" as="geometry" />
        </mxCell>
        <mxCell id="4yXEthaCVY4qFXwyMhSS-65" value="节点F" style="shape=mxgraph.cisco.misc.route_switch_processor;html=1;dashed=0;fillColor=#036897;strokeColor=#ffffff;strokeWidth=2;verticalLabelPosition=bottom;verticalAlign=top;rounded=0;shadow=0;comic=0;fontFamily=Verdana;fontSize=12;" vertex="1" parent="1">
          <mxGeometry x="2136" y="460" width="64" height="86" as="geometry" />
        </mxCell>
        <mxCell id="4yXEthaCVY4qFXwyMhSS-67" style="edgeStyle=none;rounded=0;orthogonalLoop=1;jettySize=auto;html=1;entryX=0.021;entryY=0.46;entryDx=0;entryDy=0;entryPerimeter=0;" edge="1" parent="1" source="4yXEthaCVY4qFXwyMhSS-31" target="4yXEthaCVY4qFXwyMhSS-53">
          <mxGeometry relative="1" as="geometry" />
        </mxCell>
        <mxCell id="4yXEthaCVY4qFXwyMhSS-69" value="" style="shape=flexArrow;endArrow=classic;html=1;rounded=0;" edge="1" parent="1">
          <mxGeometry width="50" height="50" relative="1" as="geometry">
            <mxPoint x="810" y="520" as="sourcePoint" />
            <mxPoint x="920" y="520" as="targetPoint" />
          </mxGeometry>
        </mxCell>
        <mxCell id="4yXEthaCVY4qFXwyMhSS-70" value="" style="shape=flexArrow;endArrow=classic;html=1;rounded=0;" edge="1" parent="1">
          <mxGeometry width="50" height="50" relative="1" as="geometry">
            <mxPoint x="1560" y="510" as="sourcePoint" />
            <mxPoint x="1670" y="510" as="targetPoint" />
          </mxGeometry>
        </mxCell>
        <mxCell id="4yXEthaCVY4qFXwyMhSS-71" value="" style="shape=flexArrow;endArrow=classic;html=1;rounded=0;" edge="1" parent="1">
          <mxGeometry width="50" height="50" relative="1" as="geometry">
            <mxPoint x="2350" y="502" as="sourcePoint" />
            <mxPoint x="2460" y="502" as="targetPoint" />
          </mxGeometry>
        </mxCell>
      </root>
    </mxGraphModel>
  </diagram>
</mxfile>
